<svg id="visual" viewBox="0 0 900 600" width="900" height="600" xmlns="http://www.w3.org/2000/svg" xmlns:xlink="http://www.w3.org/1999/xlink" version="1.1"><rect x="0" y="0" width="900" height="600" fill="#2E339A"></rect><path d="M0 253L16.7 244.2C33.3 235.3 66.7 217.7 100 206C133.3 194.3 166.7 188.7 200 195.7C233.3 202.7 266.7 222.3 300 242C333.3 261.7 366.7 281.3 400 281.2C433.3 281 466.7 261 500 242.3C533.3 223.7 566.7 206.3 600 214.2C633.3 222 666.7 255 700 288.7C733.3 322.3 766.7 356.7 800 362.7C833.3 368.7 866.7 346.3 883.3 335.2L900 324L900 601L883.3 601C866.7 601 833.3 601 800 601C766.7 601 733.3 601 700 601C666.7 601 633.3 601 600 601C566.7 601 533.3 601 500 601C466.7 601 433.3 601 400 601C366.7 601 333.3 601 300 601C266.7 601 233.3 601 200 601C166.7 601 133.3 601 100 601C66.7 601 33.3 601 16.7 601L0 601Z" fill="#FEE610" stroke-linecap="round" stroke-linejoin="miter"></path></svg>